<?xml version="1.0" encoding="UTF-8" standalone="no"?>
<svg width="283px" height="284px" viewBox="0 0 283 284" version="1.1" xmlns="http://www.w3.org/2000/svg" xmlns:xlink="http://www.w3.org/1999/xlink" xmlns:sketch="http://www.bohemiancoding.com/sketch/ns">
    <!-- Generator: Sketch 3.3.3 (12081) - http://www.bohemiancoding.com/sketch -->
    <title>Artboard 1</title>
    <desc>Created with Sketch.</desc>
    <defs>
        <path id="path-1" d="M0.06,0.538 L283.465,0.538 L283.465,284 L0.06,284"></path>
    </defs>
    <g id="Page-1" stroke="none" stroke-width="1" fill="none" fill-rule="evenodd" sketch:type="MSPage">
        <g id="Artboard-1" sketch:type="MSArtboardGroup">
            <g id="NCDS_LOGO_CMYK_03" sketch:type="MSLayerGroup">
                <g id="Group-5">
                    <mask id="mask-2" sketch:name="Clip 2" fill="white">
                        <use xlink:href="#path-1"></use>
                    </mask>
                    <g id="Clip-2"></g>
                </g>
                <path d="M248.032,0.538 L177.165,0.538 L212.598,35.971 L248.032,0.538" id="Fill-6" fill="#FFFFFF" sketch:type="MSShapeGroup"></path>
                <path d="M283.465,142.27 L283.465,106.837 L248.032,142.27 L283.465,142.27" id="Fill-7" fill="#FFFFFF" sketch:type="MSShapeGroup"></path>
                <path d="M141.732,0.538 L141.732,35.971 L177.165,0.538 L141.732,0.538" id="Fill-8" fill="#FFFFFF" sketch:type="MSShapeGroup"></path>
                <path d="M141.732,142.27 L177.165,142.27 L141.732,106.837 L141.732,142.27" id="Fill-9" fill="#FFFFFF" sketch:type="MSShapeGroup"></path>
                <path d="M141.732,35.971 L141.732,106.837 L177.165,71.404 L141.732,35.971" id="Fill-10" fill="#FFFFFF" sketch:type="MSShapeGroup"></path>
                <path d="M212.598,106.837 L248.032,71.404 L212.598,35.971 L177.165,71.404 L212.598,106.837" id="Fill-11" fill="#FFFFFF" sketch:type="MSShapeGroup"></path>
                <path d="M248.032,0.538 L283.465,35.971 L283.465,0.538 L248.032,0.538" id="Fill-12" fill="#FFFFFF" sketch:type="MSShapeGroup"></path>
                <path d="M177.165,142.27 L248.032,142.27 L212.598,106.837 L177.165,142.27" id="Fill-13" fill="#FFFFFF" sketch:type="MSShapeGroup"></path>
                <path d="M283.465,106.837 L283.465,35.971 L248.032,71.404 L283.465,106.837" id="Fill-14" fill="#FFFFFF" sketch:type="MSShapeGroup"></path>
                <path d="M212.598,35.971 L177.165,0.538 L141.732,35.971 L177.165,71.404 L212.598,35.971" id="Fill-15" fill="#E77E58" sketch:type="MSShapeGroup"></path>
                <path d="M248.032,71.404 L248.032,71.404 L212.598,106.837 L248.032,142.27 L283.465,106.837 L248.032,71.404" id="Fill-16" fill="#E77E58" sketch:type="MSShapeGroup"></path>
                <path d="M177.165,71.404 L141.732,106.837 L177.165,142.27 L212.598,106.837 L177.165,71.404" id="Fill-17" fill="#E77E58" sketch:type="MSShapeGroup"></path>
                <path d="M212.598,35.971 L248.032,71.404 L283.465,35.971 L248.032,0.538 L212.598,35.971" id="Fill-18" fill="#E77E58" sketch:type="MSShapeGroup"></path>
                <g id="Group-22" sketch:type="MSShapeGroup">
                    <path id="Fill-19" fill="#ECDE4D"></path>
                    <path d="M0.06,0.538 L141.732,0.538 L141.732,142.27 L0.06,142.27 L0.06,0.538 Z" id="Fill-21" fill="#000203"></path>
                </g>
                <path d="M86.89,78.257 C86.89,77.307 86.12,76.538 85.171,76.538 L79.273,76.538 C78.324,76.538 77.554,77.307 77.554,78.257 L77.554,90.145 C77.1,90.113 76.607,90.096 76.054,90.096 L69.004,90.096 C65.487,90.096 64.195,90.702 62.369,92.536 L57.417,97.438 C55.248,99.607 54.841,100.556 54.841,104.145 L54.841,112.999 C54.841,116.596 55.248,117.545 57.417,119.714 L59.044,121.341 C60.87,123.167 62.162,123.781 65.679,123.781 L72.728,123.781 C73.677,123.781 74.451,123.007 74.451,122.058 L74.451,116.795 C74.451,115.934 73.805,115.224 72.975,115.104 L66.118,115.104 C65.664,115.104 65.536,115.033 65.273,114.762 L64.364,113.812 C64.101,113.541 64.037,113.406 64.037,112.999 L64.037,104.95 C64.037,104.032 64.181,103.725 64.775,103.114 L68.184,99.509 C68.778,98.898 69.066,98.753 70.092,98.753 L75.471,98.753 C75.926,98.753 76.054,98.817 76.317,99.088 L77.226,100.037 C77.489,100.308 77.553,100.443 77.553,100.85 L77.553,122.058 C77.553,123.007 78.318,123.781 79.268,123.781 L85.169,123.781 C86.118,123.781 86.891,123.007 86.891,122.058 L86.89,78.257" id="Fill-23" fill="#FFFFFF" sketch:type="MSShapeGroup"></path>
                <path d="M120.606,94.163 L118.979,92.536 C117.153,90.702 115.861,90.096 112.344,90.096 L105.294,90.096 C101.778,90.096 100.486,90.702 98.66,92.536 L93.707,97.438 C91.538,99.607 91.132,100.556 91.132,104.145 L91.132,112.999 C91.132,116.596 91.538,117.545 93.707,119.714 L95.334,121.341 C97.16,123.167 98.452,123.781 101.969,123.781 L109.019,123.781 C109.968,123.781 110.741,123.007 110.741,122.058 L110.741,116.795 C110.741,115.934 110.095,115.224 109.266,115.104 L102.409,115.104 C101.955,115.104 101.827,115.033 101.564,114.762 L100.655,113.812 C100.392,113.541 100.328,113.406 100.328,112.999 L100.328,104.95 C100.328,104.032 100.472,103.725 101.066,103.114 L104.474,99.509 C105.068,98.898 105.357,98.753 106.383,98.753 L111.762,98.753 C112.217,98.753 112.344,98.817 112.607,99.088 L113.517,100.037 C113.78,100.308 113.843,100.443 113.843,100.85 L113.843,122.058 C113.843,123.007 114.609,123.781 115.558,123.781 L121.459,123.781 C122.408,123.781 123.182,123.007 123.182,122.058 L123.182,100.87 C123.182,97.281 122.775,96.332 120.606,94.163" id="Fill-24" fill="#FFFFFF" sketch:type="MSShapeGroup"></path>
                <path d="M46.398,92.536 C44.572,90.702 43.28,90.096 39.763,90.096 L32.713,90.096 C29.197,90.096 27.904,90.702 26.078,92.536 L21.126,97.438 C18.957,99.607 18.55,100.556 18.55,104.145 L18.55,112.999 C18.55,116.596 18.957,117.545 21.126,119.714 L22.753,121.341 C24.579,123.167 25.871,123.781 29.388,123.781 L36.438,123.781 C37.387,123.781 38.16,123.007 38.16,122.058 L38.16,116.795 C38.16,115.934 37.514,115.224 36.685,115.104 L29.828,115.104 C29.373,115.104 29.246,115.033 28.982,114.762 L28.073,113.812 C27.81,113.541 27.746,113.406 27.746,112.999 L27.746,104.95 C27.746,104.032 27.89,103.725 28.485,103.114 L31.893,99.509 C32.487,98.898 32.775,98.753 33.801,98.753 L39.181,98.753 C39.635,98.753 39.763,98.817 40.026,99.088 L40.935,100.037 C41.198,100.308 41.262,100.443 41.262,100.85 L41.262,122.058 C41.262,123.007 42.028,123.781 42.977,123.781 L48.878,123.781 C49.827,123.781 50.601,123.007 50.601,122.058 L50.601,100.87 C50.601,97.281 50.194,96.332 48.025,94.163 L46.398,92.536" id="Fill-25" fill="#FFFFFF" sketch:type="MSShapeGroup"></path>
                <path d="M141.732,142.268 L283.465,142.268 L283.465,284 L141.732,284 L141.732,142.268 Z" id="Fill-26" fill="#000203" sketch:type="MSShapeGroup"></path>
                <path d="M160.228,175.841 L160.228,160.77 L164.496,160.77 L169.072,173.684 L169.402,173.684 L169.402,160.77 L171.843,160.77 L171.843,175.841 L167.664,175.841 L162.978,162.905 L162.669,162.905 L162.669,175.841 L160.228,175.841" id="Fill-27" fill="#FFFFFF" sketch:type="MSShapeGroup"></path>
                <path d="M177.959,170.957 C176.948,171.045 176.442,171.595 176.442,172.606 C176.442,173.619 176.888,174.125 177.784,174.125 C178.517,174.125 179.293,174.008 180.116,173.772 L180.511,173.641 L180.511,170.715 L177.959,170.957 L177.959,170.957 Z M182.887,168.228 L182.887,173.245 C182.902,173.567 182.987,173.806 183.14,173.96 C183.294,174.114 183.533,174.213 183.855,174.257 L183.79,176.083 C182.528,176.083 181.552,175.811 180.864,175.268 C179.69,175.811 178.509,176.083 177.322,176.083 C175.136,176.083 174.043,174.917 174.043,172.585 C174.043,171.471 174.34,170.664 174.934,170.165 C175.529,169.666 176.442,169.365 177.673,169.263 L180.511,169.02 L180.511,168.228 C180.511,167.642 180.383,167.231 180.126,166.997 C179.87,166.763 179.492,166.644 178.994,166.644 C178.054,166.644 176.881,166.703 175.473,166.821 L174.769,166.865 L174.681,165.171 C176.28,164.79 177.75,164.599 179.092,164.599 C180.434,164.599 181.403,164.889 181.997,165.468 C182.59,166.048 182.887,166.968 182.887,168.228 L182.887,168.228 Z" id="Fill-28" fill="#FFFFFF" sketch:type="MSShapeGroup"></path>
                <path d="M191.005,166.887 L187.969,166.887 L187.969,171.726 C187.969,172.622 188.036,173.216 188.167,173.509 C188.299,173.803 188.636,173.949 189.179,173.949 L190.983,173.883 L191.093,175.797 C190.111,175.987 189.363,176.083 188.849,176.083 C187.602,176.083 186.749,175.797 186.287,175.225 C185.825,174.652 185.593,173.575 185.593,171.991 L185.593,166.887 L184.185,166.887 L184.185,164.841 L185.593,164.841 L185.593,161.65 L187.969,161.65 L187.969,164.841 L191.005,164.841 L191.005,166.887" id="Fill-29" fill="#FFFFFF" sketch:type="MSShapeGroup"></path>
                <path d="M193.205,164.841 L195.602,164.841 L195.602,175.841 L193.205,175.841 L193.205,164.841 Z M193.205,160.44 L195.602,160.44 L195.602,162.971 L193.205,162.971 L193.205,160.44 Z" id="Fill-30" fill="#FFFFFF" sketch:type="MSShapeGroup"></path>
                <path d="M200.686,173.179 C201.024,173.766 201.684,174.059 202.667,174.059 C203.649,174.059 204.309,173.766 204.646,173.179 C204.984,172.593 205.153,171.632 205.153,170.297 C205.153,168.962 204.972,168.017 204.614,167.459 C204.253,166.901 203.605,166.623 202.667,166.623 C201.728,166.623 201.079,166.901 200.719,167.459 C200.36,168.017 200.18,168.962 200.18,170.297 C200.18,171.632 200.349,172.593 200.686,173.179 L200.686,173.179 Z M198.893,166.029 C199.649,165.075 200.907,164.599 202.667,164.599 C204.426,164.599 205.684,165.075 206.439,166.029 C207.195,166.982 207.573,168.412 207.573,170.318 C207.573,172.226 207.206,173.663 206.472,174.631 C205.739,175.599 204.47,176.083 202.667,176.083 C200.863,176.083 199.593,175.599 198.861,174.631 C198.126,173.663 197.76,172.226 197.76,170.318 C197.76,168.412 198.138,166.982 198.893,166.029 L198.893,166.029 Z" id="Fill-31" fill="#FFFFFF" sketch:type="MSShapeGroup"></path>
                <path d="M211.665,175.841 L209.267,175.841 L209.267,164.841 L211.643,164.841 L211.643,165.522 C212.713,164.907 213.725,164.599 214.679,164.599 C216.145,164.599 217.146,165.014 217.682,165.842 C218.217,166.671 218.485,168.038 218.485,169.944 L218.485,175.841 L216.109,175.841 L216.109,170.011 C216.109,168.823 215.98,167.979 215.724,167.48 C215.467,166.982 214.943,166.732 214.151,166.732 C213.403,166.732 212.684,166.88 211.995,167.173 L211.665,167.305 L211.665,175.841" id="Fill-32" fill="#FFFFFF" sketch:type="MSShapeGroup"></path>
                <path d="M224.218,170.957 C223.207,171.045 222.701,171.595 222.701,172.606 C222.701,173.619 223.147,174.125 224.042,174.125 C224.776,174.125 225.552,174.008 226.375,173.772 L226.77,173.641 L226.77,170.715 L224.218,170.957 L224.218,170.957 Z M229.146,168.228 L229.146,173.245 C229.161,173.567 229.246,173.806 229.399,173.96 C229.553,174.114 229.792,174.213 230.114,174.257 L230.048,176.083 C228.787,176.083 227.811,175.811 227.123,175.268 C225.949,175.811 224.768,176.083 223.581,176.083 C221.395,176.083 220.302,174.917 220.302,172.585 C220.302,171.471 220.599,170.664 221.193,170.165 C221.788,169.666 222.701,169.365 223.932,169.263 L226.77,169.02 L226.77,168.228 C226.77,167.642 226.642,167.231 226.385,166.997 C226.128,166.763 225.75,166.644 225.252,166.644 C224.313,166.644 223.14,166.703 221.732,166.821 L221.028,166.865 L220.94,165.171 C222.539,164.79 224.009,164.599 225.351,164.599 C226.693,164.599 227.662,164.889 228.255,165.468 C228.849,166.048 229.146,166.968 229.146,168.228 L229.146,168.228 Z" id="Fill-33" fill="#FFFFFF" sketch:type="MSShapeGroup"></path>
                <path d="M231.961,160.265 L234.36,160.265 L234.36,175.841 L231.961,175.841 L231.961,160.265 Z" id="Fill-34" fill="#FFFFFF" sketch:type="MSShapeGroup"></path>
                <path d="M165.288,202.083 C163.087,202.083 161.595,201.475 160.811,200.257 C160.026,199.04 159.633,197.038 159.633,194.251 C159.633,191.465 160.03,189.48 160.822,188.3 C161.614,187.119 163.102,186.529 165.288,186.529 C166.593,186.529 168.03,186.712 169.6,187.079 L169.512,189.059 C168.192,188.824 166.872,188.707 165.551,188.707 C164.232,188.707 163.337,189.1 162.868,189.884 C162.398,190.669 162.164,192.142 162.164,194.306 C162.164,196.47 162.391,197.943 162.846,198.727 C163.3,199.513 164.188,199.905 165.507,199.905 C166.828,199.905 168.163,199.795 169.512,199.575 L169.578,201.599 C168.067,201.921 166.637,202.083 165.288,202.083" id="Fill-35" fill="#FFFFFF" sketch:type="MSShapeGroup"></path>
                <path d="M174.012,199.179 C174.35,199.766 175.01,200.059 175.993,200.059 C176.975,200.059 177.635,199.766 177.972,199.179 C178.31,198.593 178.479,197.632 178.479,196.297 C178.479,194.962 178.298,194.017 177.94,193.459 C177.58,192.901 176.931,192.623 175.993,192.623 C175.054,192.623 174.405,192.901 174.045,193.459 C173.686,194.017 173.506,194.962 173.506,196.297 C173.506,197.632 173.675,198.593 174.012,199.179 L174.012,199.179 Z M172.219,192.029 C172.975,191.075 174.233,190.599 175.993,190.599 C177.752,190.599 179.01,191.075 179.765,192.029 C180.521,192.982 180.899,194.412 180.899,196.318 C180.899,198.226 180.532,199.663 179.798,200.631 C179.065,201.599 177.796,202.083 175.993,202.083 C174.189,202.083 172.919,201.599 172.187,200.631 C171.453,199.663 171.086,198.226 171.086,196.318 C171.086,194.412 171.464,192.982 172.219,192.029 L172.219,192.029 Z" id="Fill-36" fill="#FFFFFF" sketch:type="MSShapeGroup"></path>
                <path d="M182.637,186.265 L185.036,186.265 L185.036,201.841 L182.637,201.841 L182.637,186.265 Z" id="Fill-37" fill="#FFFFFF" sketch:type="MSShapeGroup"></path>
                <path d="M187.741,186.265 L190.139,186.265 L190.139,201.841 L187.741,201.841 L187.741,186.265 Z" id="Fill-38" fill="#FFFFFF" sketch:type="MSShapeGroup"></path>
                <path d="M198.982,195.505 C198.982,194.42 198.809,193.66 198.465,193.227 C198.121,192.795 197.538,192.579 196.716,192.579 C195.894,192.579 195.297,192.807 194.923,193.261 C194.549,193.716 194.355,194.464 194.34,195.505 L198.982,195.505 L198.982,195.505 Z M200.302,199.86 L200.918,199.795 L200.962,201.577 C199.291,201.914 197.808,202.083 196.518,202.083 C194.89,202.083 193.72,201.636 193.009,200.741 C192.297,199.847 191.942,198.416 191.942,196.451 C191.942,192.55 193.534,190.599 196.716,190.599 C199.796,190.599 201.336,192.278 201.336,195.637 L201.182,197.352 L194.362,197.352 C194.376,198.263 194.575,198.93 194.957,199.354 C195.337,199.78 196.048,199.993 197.09,199.993 C198.131,199.993 199.202,199.949 200.302,199.86 L200.302,199.86 Z" id="Fill-39" fill="#FFFFFF" sketch:type="MSShapeGroup"></path>
                <path d="M205.89,195.934 C206.212,196.249 206.733,196.407 207.452,196.407 C208.17,196.407 208.687,196.249 209.002,195.934 C209.318,195.618 209.476,195.124 209.476,194.449 C209.476,193.774 209.314,193.279 208.992,192.964 C208.668,192.648 208.148,192.491 207.429,192.491 C206.081,192.491 205.406,193.143 205.406,194.449 C205.406,195.124 205.567,195.618 205.89,195.934 L205.89,195.934 Z M205.23,203.557 C205.23,204.07 205.435,204.436 205.845,204.657 C206.256,204.877 206.96,204.987 207.958,204.987 C209.732,204.987 210.62,204.48 210.62,203.469 C210.62,202.896 210.461,202.534 210.147,202.38 C209.832,202.226 209.204,202.142 208.266,202.127 L206.11,201.995 C205.787,202.259 205.56,202.504 205.427,202.731 C205.295,202.959 205.23,203.234 205.23,203.557 L205.23,203.557 Z M213.018,203.337 C213.018,205.742 211.28,206.944 207.803,206.944 C206.131,206.944 204.892,206.717 204.085,206.263 C203.279,205.808 202.875,204.979 202.875,203.776 C202.875,203.234 203.007,202.768 203.272,202.38 C203.536,201.991 203.96,201.569 204.547,201.115 C204.064,200.792 203.822,200.257 203.822,199.509 C203.822,199.216 204.02,198.739 204.416,198.079 L204.614,197.749 C203.558,197.118 203.03,196.018 203.03,194.449 C203.03,193.129 203.425,192.161 204.217,191.545 C205.009,190.929 206.081,190.621 207.429,190.621 C208.075,190.621 208.712,190.694 209.343,190.841 L209.673,190.907 L213.083,190.818 L213.083,192.755 L211.257,192.644 C211.654,193.158 211.852,193.76 211.852,194.449 C211.852,195.887 211.489,196.88 210.762,197.43 C210.037,197.979 208.904,198.255 207.364,198.255 C206.982,198.255 206.66,198.226 206.396,198.167 C206.19,198.666 206.087,199.051 206.087,199.322 C206.087,199.594 206.223,199.78 206.495,199.883 C206.766,199.985 207.422,200.044 208.463,200.059 C210.208,200.073 211.404,200.309 212.049,200.763 C212.695,201.218 213.018,202.075 213.018,203.337 L213.018,203.337 Z" id="Fill-40" fill="#FFFFFF" sketch:type="MSShapeGroup"></path>
                <path d="M221.223,195.505 C221.223,194.42 221.05,193.66 220.707,193.227 C220.362,192.795 219.779,192.579 218.958,192.579 C218.135,192.579 217.539,192.807 217.165,193.261 C216.791,193.716 216.596,194.464 216.582,195.505 L221.223,195.505 L221.223,195.505 Z M222.543,199.86 L223.16,199.795 L223.204,201.577 C221.532,201.914 220.049,202.083 218.759,202.083 C217.131,202.083 215.961,201.636 215.25,200.741 C214.539,199.847 214.183,198.416 214.183,196.451 C214.183,192.55 215.775,190.599 218.958,190.599 C222.038,190.599 223.578,192.278 223.578,195.637 L223.423,197.352 L216.603,197.352 C216.618,198.263 216.816,198.93 217.198,199.354 C217.579,199.78 218.29,199.993 219.332,199.993 C220.373,199.993 221.443,199.949 222.543,199.86 L222.543,199.86 Z" id="Fill-41" fill="#FFFFFF" sketch:type="MSShapeGroup"></path>
                <path d="M233.389,192.887 L233.389,201.841 L231.013,201.841 L231.013,192.887 L229.737,192.887 L229.737,190.841 L231.013,190.841 L231.013,190.137 C231.013,188.567 231.241,187.489 231.695,186.902 C232.15,186.316 232.957,186.022 234.115,186.022 L236.491,186.243 L236.469,188.201 C235.75,188.172 235.153,188.157 234.676,188.157 C234.2,188.157 233.866,188.3 233.675,188.586 C233.485,188.872 233.389,189.396 233.389,190.159 L233.389,190.841 L236.293,190.841 L236.293,192.887 L233.389,192.887" id="Fill-42" fill="#FFFFFF" sketch:type="MSShapeGroup"></path>
                <path d="M240.385,199.179 C240.723,199.766 241.383,200.059 242.366,200.059 C243.348,200.059 244.008,199.766 244.345,199.179 C244.683,198.593 244.852,197.632 244.852,196.297 C244.852,194.962 244.671,194.017 244.313,193.459 C243.953,192.901 243.304,192.623 242.366,192.623 C241.427,192.623 240.778,192.901 240.418,193.459 C240.059,194.017 239.879,194.962 239.879,196.297 C239.879,197.632 240.048,198.593 240.385,199.179 L240.385,199.179 Z M238.592,192.029 C239.348,191.075 240.606,190.599 242.366,190.599 C244.125,190.599 245.383,191.075 246.138,192.029 C246.894,192.982 247.272,194.412 247.272,196.318 C247.272,198.226 246.905,199.663 246.171,200.631 C245.438,201.599 244.169,202.083 242.366,202.083 C240.562,202.083 239.292,201.599 238.56,200.631 C237.826,199.663 237.459,198.226 237.459,196.318 C237.459,194.412 237.837,192.982 238.592,192.029 L238.592,192.029 Z" id="Fill-43" fill="#FFFFFF" sketch:type="MSShapeGroup"></path>
                <path d="M248.965,201.841 L248.965,190.841 L251.341,190.841 L251.341,192.161 C252.587,191.354 253.834,190.834 255.082,190.599 L255.082,192.997 C253.82,193.246 252.742,193.568 251.847,193.965 L251.363,194.163 L251.363,201.841 L248.965,201.841" id="Fill-44" fill="#FFFFFF" sketch:type="MSShapeGroup"></path>
                <path d="M168.94,220.453 C168.94,218.635 168.712,217.322 168.257,216.516 C167.803,215.709 166.864,215.306 165.442,215.306 L162.669,215.306 L162.669,226.085 L165.442,226.085 C166.894,226.085 167.862,225.55 168.346,224.479 C168.581,223.936 168.738,223.357 168.819,222.741 C168.899,222.125 168.94,221.362 168.94,220.453 L168.94,220.453 Z M165.442,228.241 L160.228,228.241 L160.228,213.171 L165.442,213.171 C167.759,213.171 169.343,213.758 170.194,214.932 C171.044,216.104 171.47,217.945 171.47,220.453 C171.47,221.729 171.385,222.81 171.216,223.698 C171.048,224.586 170.75,225.389 170.326,226.107 C169.49,227.53 167.862,228.241 165.442,228.241 L165.442,228.241 Z" id="Fill-45" fill="#FFFFFF" sketch:type="MSShapeGroup"></path>
                <path d="M173.824,217.241 L176.221,217.241 L176.221,228.241 L173.824,228.241 L173.824,217.241 Z M173.824,212.841 L176.221,212.841 L176.221,215.371 L173.824,215.371 L173.824,212.841 Z" id="Fill-46" fill="#FFFFFF" sketch:type="MSShapeGroup"></path>
                <path d="M181.233,222.334 C181.555,222.649 182.076,222.808 182.794,222.808 C183.513,222.808 184.03,222.649 184.345,222.334 C184.661,222.018 184.819,221.524 184.819,220.85 C184.819,220.175 184.657,219.68 184.334,219.364 C184.011,219.049 183.491,218.892 182.772,218.892 C181.423,218.892 180.749,219.544 180.749,220.85 C180.749,221.524 180.91,222.018 181.233,222.334 L181.233,222.334 Z M180.573,229.957 C180.573,230.471 180.778,230.837 181.188,231.058 C181.599,231.277 182.303,231.388 183.3,231.388 C185.075,231.388 185.962,230.881 185.962,229.869 C185.962,229.297 185.804,228.934 185.49,228.78 C185.174,228.626 184.546,228.542 183.609,228.527 L181.453,228.395 C181.129,228.659 180.903,228.904 180.77,229.132 C180.638,229.359 180.573,229.635 180.573,229.957 L180.573,229.957 Z M188.361,229.737 C188.361,232.142 186.623,233.345 183.146,233.345 C181.474,233.345 180.235,233.117 179.428,232.663 C178.622,232.208 178.218,231.38 178.218,230.177 C178.218,229.635 178.35,229.169 178.615,228.78 C178.878,228.392 179.303,227.97 179.89,227.516 C179.407,227.192 179.165,226.657 179.165,225.909 C179.165,225.616 179.363,225.14 179.758,224.479 L179.957,224.149 C178.901,223.518 178.373,222.419 178.373,220.85 C178.373,219.529 178.768,218.561 179.56,217.945 C180.352,217.329 181.423,217.021 182.772,217.021 C183.417,217.021 184.055,217.095 184.686,217.241 L185.016,217.308 L188.426,217.219 L188.426,219.155 L186.6,219.045 C186.997,219.559 187.195,220.16 187.195,220.85 C187.195,222.287 186.832,223.28 186.105,223.83 C185.379,224.38 184.247,224.655 182.707,224.655 C182.325,224.655 182.002,224.626 181.739,224.567 C181.533,225.066 181.43,225.451 181.43,225.723 C181.43,225.994 181.566,226.181 181.837,226.283 C182.109,226.386 182.765,226.444 183.806,226.459 C185.551,226.474 186.747,226.709 187.392,227.163 C188.038,227.618 188.361,228.476 188.361,229.737 L188.361,229.737 Z" id="Fill-47" fill="#FFFFFF" sketch:type="MSShapeGroup"></path>
                <path d="M190.105,217.241 L192.502,217.241 L192.502,228.241 L190.105,228.241 L190.105,217.241 Z M190.105,212.841 L192.502,212.841 L192.502,215.371 L190.105,215.371 L190.105,212.841 Z" id="Fill-48" fill="#FFFFFF" sketch:type="MSShapeGroup"></path>
                <path d="M201.065,219.287 L198.029,219.287 L198.029,224.127 C198.029,225.022 198.095,225.616 198.227,225.909 C198.359,226.203 198.696,226.35 199.239,226.35 L201.042,226.283 L201.153,228.197 C200.17,228.388 199.422,228.483 198.909,228.483 C197.662,228.483 196.808,228.197 196.346,227.625 C195.884,227.053 195.653,225.976 195.653,224.392 L195.653,219.287 L194.245,219.287 L194.245,217.241 L195.653,217.241 L195.653,214.051 L198.029,214.051 L198.029,217.241 L201.065,217.241 L201.065,219.287" id="Fill-49" fill="#FFFFFF" sketch:type="MSShapeGroup"></path>
                <path d="M206.279,223.357 C205.267,223.445 204.761,223.995 204.761,225.007 C204.761,226.019 205.208,226.525 206.103,226.525 C206.836,226.525 207.613,226.408 208.435,226.173 L208.831,226.041 L208.831,223.115 L206.279,223.357 L206.279,223.357 Z M211.207,220.629 L211.207,225.645 C211.221,225.968 211.306,226.206 211.459,226.36 C211.614,226.515 211.852,226.613 212.174,226.657 L212.109,228.483 C210.847,228.483 209.872,228.212 209.183,227.669 C208.009,228.212 206.829,228.483 205.641,228.483 C203.456,228.483 202.363,227.317 202.363,224.985 C202.363,223.871 202.66,223.064 203.253,222.565 C203.848,222.066 204.761,221.766 205.993,221.663 L208.831,221.421 L208.831,220.629 C208.831,220.043 208.703,219.632 208.446,219.397 C208.189,219.163 207.811,219.045 207.313,219.045 C206.374,219.045 205.201,219.103 203.792,219.222 L203.088,219.266 L203,217.571 C204.599,217.19 206.07,216.999 207.412,216.999 C208.753,216.999 209.722,217.289 210.316,217.868 C210.91,218.448 211.207,219.368 211.207,220.629 L211.207,220.629 Z" id="Fill-50" fill="#FFFFFF" sketch:type="MSShapeGroup"></path>
                <path d="M214.034,212.665 L216.432,212.665 L216.432,228.241 L214.034,228.241 L214.034,212.665 Z" id="Fill-51" fill="#FFFFFF" sketch:type="MSShapeGroup"></path>
                <path d="M164.65,241.463 C162.787,241.463 161.856,242.115 161.856,243.421 C161.856,244.096 162.076,244.575 162.516,244.861 C162.956,245.147 163.927,245.5 165.431,245.918 C166.934,246.336 167.994,246.834 168.61,247.414 C169.226,247.993 169.534,248.906 169.534,250.152 C169.534,251.736 169.083,252.921 168.181,253.706 C167.279,254.49 166.05,254.883 164.496,254.883 C163.249,254.883 161.871,254.736 160.36,254.442 L159.568,254.289 L159.81,252.331 C161.79,252.595 163.3,252.726 164.341,252.726 C166.161,252.726 167.07,251.92 167.07,250.307 C167.07,249.676 166.864,249.21 166.454,248.909 C166.042,248.609 165.119,248.279 163.682,247.92 C162.245,247.56 161.173,247.065 160.47,246.434 C159.766,245.804 159.414,244.807 159.414,243.442 C159.414,242.079 159.857,241.049 160.745,240.351 C161.632,239.655 162.86,239.307 164.43,239.307 C165.559,239.307 166.894,239.438 168.434,239.702 L169.204,239.835 L169.005,241.814 C166.953,241.58 165.5,241.463 164.65,241.463" id="Fill-52" fill="#FFFFFF" sketch:type="MSShapeGroup"></path>
                <path d="M173.958,254.641 L171.56,254.641 L171.56,239.064 L173.958,239.064 L173.958,248.062 L175.322,247.931 L177.917,243.641 L180.602,243.641 L177.434,248.789 L180.778,254.641 L178.072,254.641 L175.388,249.999 L173.958,250.152 L173.958,254.641" id="Fill-53" fill="#FFFFFF" sketch:type="MSShapeGroup"></path>
                <path d="M182.39,243.641 L184.788,243.641 L184.788,254.641 L182.39,254.641 L182.39,243.641 Z M182.39,239.24 L184.788,239.24 L184.788,241.77 L182.39,241.77 L182.39,239.24 Z" id="Fill-54" fill="#FFFFFF" sketch:type="MSShapeGroup"></path>
                <path d="M187.439,239.064 L189.837,239.064 L189.837,254.641 L187.439,254.641 L187.439,239.064 Z" id="Fill-55" fill="#FFFFFF" sketch:type="MSShapeGroup"></path>
                <path d="M192.553,239.064 L194.952,239.064 L194.952,254.641 L192.553,254.641 L192.553,239.064 Z" id="Fill-56" fill="#FFFFFF" sketch:type="MSShapeGroup"></path>
                <path d="M204.895,245.906 C203.165,245.672 201.911,245.555 201.133,245.555 C200.356,245.555 199.817,245.646 199.516,245.83 C199.215,246.014 199.065,246.303 199.065,246.698 C199.065,247.095 199.23,247.373 199.56,247.534 C199.89,247.696 200.667,247.883 201.892,248.096 C203.117,248.309 203.986,248.642 204.5,249.097 C205.012,249.552 205.269,250.358 205.269,251.517 C205.269,252.676 204.899,253.526 204.158,254.068 C203.417,254.611 202.335,254.883 200.913,254.883 C200.018,254.883 198.889,254.758 197.525,254.509 L196.843,254.398 L196.931,252.396 C198.691,252.632 199.959,252.749 200.737,252.749 C201.514,252.749 202.068,252.653 202.398,252.463 C202.728,252.272 202.893,251.957 202.893,251.517 C202.893,251.076 202.735,250.772 202.42,250.603 C202.105,250.435 201.349,250.252 200.154,250.054 C198.958,249.855 198.083,249.544 197.525,249.118 C196.967,248.693 196.689,247.916 196.689,246.787 C196.689,245.657 197.074,244.814 197.844,244.257 C198.614,243.699 199.6,243.421 200.803,243.421 C201.742,243.421 202.893,243.538 204.257,243.772 L204.939,243.904 L204.895,245.906" id="Fill-57" fill="#FFFFFF" sketch:type="MSShapeGroup"></path>
            </g>
        </g>
    </g>
</svg>