<?xml version="1.0" encoding="utf-8"?>
<!-- Generator: Adobe Illustrator 16.0.3, SVG Export Plug-In . SVG Version: 6.00 Build 0)  -->
<!DOCTYPE svg PUBLIC "-//W3C//DTD SVG 1.1//EN" "http://www.w3.org/Graphics/SVG/1.1/DTD/svg11.dtd">
<svg version="1.1" id="Layer_1" xmlns="http://www.w3.org/2000/svg" xmlns:xlink="http://www.w3.org/1999/xlink" x="0px" y="0px"
	 width="300px" height="300px" viewBox="0 0 300 300" enable-background="new 0 0 300 300" xml:space="preserve">
<circle fill="#FFFFFF" cx="149.473" cy="150.287" r="146.527"/>
<g>
	<polygon fill="#EC1C24" points="52.055,102.731 61.807,117.862 154.17,58.344 134.624,110.208 165.79,106.231 187.413,15.51 	"/>
	<polygon fill="#EC1C24" points="237.815,195.063 227.821,180.095 136.443,241.114 152.477,196.382 124.418,200.17 103.902,284.49 	
		"/>
</g>
<g>
	<path d="M57.564,171.022v-1.436l20.244-35.443H57.885v-5.166h28.76v1.435l-20.308,35.443h21.015v5.166H57.564z"/>
	<path d="M112.349,171.022v-42.044h6.426v42.044H112.349z"/>
	<path d="M175.366,171.596l-24.324-30.736v30.163h-6.105v-42.044h2.571l23.682,29.072v-29.072h6.105v42.618H175.366z"/>
	<path d="M232.772,131.905l-2.666,4.735c-3.234-2.143-6.406-3.214-9.513-3.214c-4.927,0-8.814,1.55-11.664,4.649
		c-2.849,3.099-4.273,7.203-4.273,12.312c0,4.859,1.398,8.772,4.193,11.737c2.796,2.966,6.604,4.449,11.424,4.449
		c3.427,0,6.201-0.919,8.322-2.756v-9.844h-6.522v-4.878h12.949v18.31c-1.714,1.301-4.104,2.349-7.165,3.143
		c-3.064,0.794-6.042,1.19-8.933,1.19c-6.491,0-11.617-1.966-15.376-5.897c-3.76-3.932-5.64-9.159-5.64-15.684
		c0-6.505,2.062-11.781,6.185-15.828c4.123-4.046,9.688-6.07,16.693-6.07C225.692,128.26,229.688,129.476,232.772,131.905z"/>
</g>
</svg>
